# xmcd CD database file
#
# Track frame offsets:
#	150
#	13300
#	26045
#	37672
#	51315
#	62870
#	76087
#	87972
#	100592
#	113035
#
# Disc length: 1662 seconds
#
# Revision: 0
# Processed by: cddbd v1.5.2PL0 Copyright (c) Steve Scherf et al.
# Submitted via: CDex 1.70beta2
#
DISCID=72067c0a
DTITLE=Orlando Marin and his Orchestra - Se Te Quemo La Casa
DYEAR=1961
DGENRE=Salsa
TTITLE0=La Casa (Pachanga)
TTITLE1=Mi Vecina (Guaguanco)
TTITLE2=Quite Quite (Oriza)
TTITLE3=Tus Recuerdos (Bolero)
TTITLE4=Ritmo Bembe (Mambo)
TTITLE5=Esta De Bala (Descarga)
TTITLE6=No Se Detengan (Pachanga)
TTITLE7=Orlando's Guarija (Guarija)
TTITLE8=Sin Discusion (Guaguanco)
TTITLE9=Aprovechate (Pachanga)
EXTD=YEAR: 1961
EXTT0=
EXTT1=
EXTT2=
EXTT3=
EXTT4=
EXTT5=
EXTT6=
EXTT7=
EXTT8=
EXTT9=
PLAYORDER=
